<svg width="64" height="64" viewBox="0 0 64 64" fill="none" xmlns="http://www.w3.org/2000/svg">
  <circle cx="32" cy="32" r="32" fill="url(#paint0_linear_1_3)"/>
  <path d="M17.5 37.5V30.7C17.5 29.57 17.82 28.46 18.44 27.52L21.1 23.5C22.03 22.1 23.59 21.25 25.28 21.25H38.72C40.41 21.25 41.97 22.1 42.9 23.5L45.56 27.52C46.18 28.46 46.5 29.57 46.5 30.7V37.5" stroke="#2F78F0" stroke-width="2.5" stroke-linecap="round" stroke-linejoin="round"/>
  <path d="M15.8 37.5H48.2C49.19 37.5 50 38.31 50 39.3V40C50 41.8 48.54 43.25 46.75 43.25H17.25C15.46 43.25 14 41.8 14 40V39.3C14 38.31 14.81 37.5 15.8 37.5Z" stroke="#2F78F0" stroke-width="2.5"/>
  <path d="M20.4 28.4L24.3 31.3H39.7L43.6 28.4" stroke="#2F78F0" stroke-width="2.5" stroke-linecap="round" stroke-linejoin="round"/>
  <path d="M25 43.25V45.2" stroke="#2F78F0" stroke-width="2.5" stroke-linecap="round"/>
  <path d="M39 43.25V45.2" stroke="#2F78F0" stroke-width="2.5" stroke-linecap="round"/>
  <circle cx="22.8" cy="40" r="1.9" fill="#2F78F0"/>
  <circle cx="41.2" cy="40" r="1.9" fill="#2F78F0"/>
  <path d="M46.2 18.5L47.25 20.8L49.6 21.85L47.25 22.9L46.2 25.2L45.15 22.9L42.8 21.85L45.15 20.8L46.2 18.5Z" fill="#DDEBFF"/>
  <path d="M19.3 16L20.05 17.55L21.6 18.3L20.05 19.05L19.3 20.6L18.55 19.05L17 18.3L18.55 17.55L19.3 16Z" fill="#DDEBFF"/>
  <defs>
    <linearGradient id="paint0_linear_1_3" x1="9" y1="8" x2="55" y2="56" gradientUnits="userSpaceOnUse">
      <stop stop-color="#DCEEFF"/>
      <stop offset="1" stop-color="#F6FBFF"/>
    </linearGradient>
  </defs>
</svg>
