<svg width="48" height="48" viewBox="0 0 48 48" fill="none" xmlns="http://www.w3.org/2000/svg">
  <path d="M38 34H42C43.1 34 44 33.1 44 32V25.5C44 23.8 42.8 22.4 41.2 22L33 20L28.5 15.2C27.6 14.4 26.5 14 25.3 14H12.8C11.6 14 10.5 14.7 10 15.8L6.6 22.6C6.2 23.4 6 24.2 6 25.1V32C6 33.1 6.9 34 8 34H11.5" stroke="#FFFFFF" stroke-width="3.4" stroke-linecap="round" stroke-linejoin="round"/>
  <path d="M17 34H31" stroke="#FFFFFF" stroke-width="3.4" stroke-linecap="round" stroke-linejoin="round"/>
  <path d="M14 38C16.2091 38 18 36.2091 18 34C18 31.7909 16.2091 30 14 30C11.7909 30 10 31.7909 10 34C10 36.2091 11.7909 38 14 38Z" stroke="#FFFFFF" stroke-width="3.4" stroke-linecap="round" stroke-linejoin="round"/>
  <path d="M34 38C36.2091 38 38 36.2091 38 34C38 31.7909 36.2091 30 34 30C31.7909 30 30 31.7909 30 34C30 36.2091 31.7909 38 34 38Z" stroke="#FFFFFF" stroke-width="3.4" stroke-linecap="round" stroke-linejoin="round"/>
</svg>
