<svg width="48" height="48" viewBox="0 0 48 48" fill="none" xmlns="http://www.w3.org/2000/svg">
  <path d="M24 30.5C27.5899 30.5 30.5 27.5899 30.5 24C30.5 20.4101 27.5899 17.5 24 17.5C20.4101 17.5 17.5 20.4101 17.5 24C17.5 27.5899 20.4101 30.5 24 30.5Z" stroke="#2F86F6" stroke-width="3" stroke-linecap="round" stroke-linejoin="round"/>
  <path d="M38.4 20.3L35.7 19.3C35.2 17.9 34.6 16.7 33.8 15.5L35 12.8C35.3 12.1 35.1 11.3 34.6 10.8L32.2 8.4C31.7 7.9 30.9 7.7 30.2 8L27.5 9.2C26.3 8.5 25.1 7.9 23.7 7.5L22.7 4.8C22.4 4.1 21.8 3.7 21 3.7H17.6C16.9 3.7 16.2 4.1 15.9 4.8L14.9 7.5C13.6 7.9 12.3 8.5 11.2 9.2L8.5 8C7.8 7.7 7 7.9 6.5 8.4L4.1 10.8C3.6 11.3 3.4 12.1 3.7 12.8L4.9 15.5C4.2 16.7 3.6 17.9 3.2 19.3L0.6 20.3C-0.1 20.6 -0.5 21.2 -0.5 22V26C-0.5 26.8 -0.1 27.4 0.6 27.7L3.2 28.7C3.6 30.1 4.2 31.3 4.9 32.5L3.7 35.2C3.4 35.9 3.6 36.7 4.1 37.2L6.5 39.6C7 40.1 7.8 40.3 8.5 40L11.2 38.8C12.3 39.5 13.6 40.1 14.9 40.5L15.9 43.2C16.2 43.9 16.9 44.3 17.6 44.3H21C21.8 44.3 22.4 43.9 22.7 43.2L23.7 40.5C25.1 40.1 26.3 39.5 27.5 38.8L30.2 40C30.9 40.3 31.7 40.1 32.2 39.6L34.6 37.2C35.1 36.7 35.3 35.9 35 35.2L33.8 32.5C34.6 31.3 35.2 30.1 35.7 28.7L38.4 27.7C39.1 27.4 39.5 26.8 39.5 26V22C39.5 21.2 39.1 20.6 38.4 20.3Z" transform="translate(4.5 0)" stroke="#2F86F6" stroke-width="3" stroke-linecap="round" stroke-linejoin="round"/>
</svg>
